<mxfile host="Electron" agent="Mozilla/5.0 (Windows NT 10.0; Win64; x64) AppleWebKit/537.36 (KHTML, like Gecko) draw.io/26.0.15 Chrome/132.0.6834.196 Electron/34.2.0 Safari/537.36" version="26.0.15">
  <diagram name="Page-1" id="E7bw90HXRPs6HPyaAoqD">
    <mxGraphModel dx="2107" dy="749" grid="1" gridSize="10" guides="1" tooltips="1" connect="1" arrows="1" fold="1" page="1" pageScale="1" pageWidth="850" pageHeight="1100" math="0" shadow="0">
      <root>
        <mxCell id="0" />
        <mxCell id="1" parent="0" />
        <mxCell id="i42l4WrnaCCEQySJiqY1-10" value="" style="endArrow=none;html=1;rounded=0;entryX=0.5;entryY=1;entryDx=0;entryDy=0;exitX=0.5;exitY=0;exitDx=0;exitDy=0;" edge="1" parent="1" source="L9WXrRlKNHFQn-w-btfH-247" target="L9WXrRlKNHFQn-w-btfH-241">
          <mxGeometry width="50" height="50" relative="1" as="geometry">
            <mxPoint x="-400" y="510" as="sourcePoint" />
            <mxPoint x="-350" y="460" as="targetPoint" />
          </mxGeometry>
        </mxCell>
        <mxCell id="L9WXrRlKNHFQn-w-btfH-5" value="Users" style="rounded=0;whiteSpace=wrap;html=1;fontSize=16;" parent="1" vertex="1">
          <mxGeometry x="-780" y="130" width="120" height="60" as="geometry" />
        </mxCell>
        <mxCell id="L9WXrRlKNHFQn-w-btfH-10" value="Login" style="rhombus;whiteSpace=wrap;html=1;fontSize=16;" parent="1" vertex="1">
          <mxGeometry x="-770" y="240" width="80" height="80" as="geometry" />
        </mxCell>
        <mxCell id="L9WXrRlKNHFQn-w-btfH-13" value="" style="endArrow=classic;html=1;rounded=0;exitX=0.42;exitY=1.004;exitDx=0;exitDy=0;entryX=0.5;entryY=0;entryDx=0;entryDy=0;exitPerimeter=0;fontSize=16;" parent="1" source="L9WXrRlKNHFQn-w-btfH-5" target="L9WXrRlKNHFQn-w-btfH-10" edge="1">
          <mxGeometry width="50" height="50" relative="1" as="geometry">
            <mxPoint x="-730" y="240" as="sourcePoint" />
            <mxPoint x="-760" y="220" as="targetPoint" />
          </mxGeometry>
        </mxCell>
        <mxCell id="L9WXrRlKNHFQn-w-btfH-15" value="" style="endArrow=classic;html=1;rounded=0;entryX=0;entryY=0.5;entryDx=0;entryDy=0;exitX=0;exitY=0.5;exitDx=0;exitDy=0;fontSize=16;" parent="1" source="L9WXrRlKNHFQn-w-btfH-10" target="L9WXrRlKNHFQn-w-btfH-5" edge="1">
          <mxGeometry width="50" height="50" relative="1" as="geometry">
            <mxPoint x="-780" y="270" as="sourcePoint" />
            <mxPoint x="-790" y="260" as="targetPoint" />
            <Array as="points">
              <mxPoint x="-810" y="280" />
              <mxPoint x="-810" y="160" />
            </Array>
          </mxGeometry>
        </mxCell>
        <mxCell id="L9WXrRlKNHFQn-w-btfH-28" value="Homepage" style="rounded=0;whiteSpace=wrap;html=1;fontSize=16;" parent="1" vertex="1">
          <mxGeometry x="-790" y="340" width="120" height="40" as="geometry" />
        </mxCell>
        <mxCell id="L9WXrRlKNHFQn-w-btfH-29" value="Like Music" style="rounded=0;whiteSpace=wrap;html=1;fontSize=16;" parent="1" vertex="1">
          <mxGeometry x="-780" y="570" width="120" height="40" as="geometry" />
        </mxCell>
        <mxCell id="L9WXrRlKNHFQn-w-btfH-35" value="Post Comment" style="rounded=0;whiteSpace=wrap;html=1;fontSize=16;" parent="1" vertex="1">
          <mxGeometry x="-780" y="630" width="120" height="40" as="geometry" />
        </mxCell>
        <mxCell id="L9WXrRlKNHFQn-w-btfH-126" value="&lt;font style=&quot;font-size: 14px;&quot;&gt;Enjoys music?&lt;/font&gt;" style="rhombus;whiteSpace=wrap;html=1;fontSize=16;" parent="1" vertex="1">
          <mxGeometry x="-760" y="470" width="80" height="80" as="geometry" />
        </mxCell>
        <mxCell id="L9WXrRlKNHFQn-w-btfH-127" value="View User Profile" style="rounded=0;whiteSpace=wrap;html=1;fontSize=16;" parent="1" vertex="1">
          <mxGeometry x="-780" y="690" width="120" height="40" as="geometry" />
        </mxCell>
        <mxCell id="L9WXrRlKNHFQn-w-btfH-128" value="View Other User/Artist Profile" style="rounded=0;whiteSpace=wrap;html=1;fontSize=16;" parent="1" vertex="1">
          <mxGeometry x="-780" y="750" width="120" height="70" as="geometry" />
        </mxCell>
        <mxCell id="L9WXrRlKNHFQn-w-btfH-130" value="Create Playlists" style="rounded=0;whiteSpace=wrap;html=1;fontSize=16;" parent="1" vertex="1">
          <mxGeometry x="-780" y="840" width="120" height="40" as="geometry" />
        </mxCell>
        <mxCell id="L9WXrRlKNHFQn-w-btfH-131" value="Log Out" style="rounded=0;whiteSpace=wrap;html=1;fontSize=16;" parent="1" vertex="1">
          <mxGeometry x="-780" y="900" width="120" height="40" as="geometry" />
        </mxCell>
        <mxCell id="L9WXrRlKNHFQn-w-btfH-132" value="" style="endArrow=none;html=1;rounded=0;exitX=1;exitY=0.5;exitDx=0;exitDy=0;entryX=1;entryY=0.5;entryDx=0;entryDy=0;" parent="1" source="L9WXrRlKNHFQn-w-btfH-126" target="L9WXrRlKNHFQn-w-btfH-184" edge="1">
          <mxGeometry width="50" height="50" relative="1" as="geometry">
            <mxPoint x="-640" y="450" as="sourcePoint" />
            <mxPoint x="-590" y="400" as="targetPoint" />
            <Array as="points">
              <mxPoint x="-630" y="510" />
              <mxPoint x="-630" y="440" />
              <mxPoint x="-630" y="420" />
            </Array>
          </mxGeometry>
        </mxCell>
        <mxCell id="L9WXrRlKNHFQn-w-btfH-134" value="" style="endArrow=none;html=1;rounded=0;entryX=0.5;entryY=1;entryDx=0;entryDy=0;exitX=0.5;exitY=0;exitDx=0;exitDy=0;" parent="1" source="L9WXrRlKNHFQn-w-btfH-29" target="L9WXrRlKNHFQn-w-btfH-126" edge="1">
          <mxGeometry width="50" height="50" relative="1" as="geometry">
            <mxPoint x="-570" y="470" as="sourcePoint" />
            <mxPoint x="-520" y="420" as="targetPoint" />
          </mxGeometry>
        </mxCell>
        <mxCell id="L9WXrRlKNHFQn-w-btfH-135" value="" style="endArrow=none;html=1;rounded=0;exitX=0.5;exitY=0;exitDx=0;exitDy=0;entryX=0.5;entryY=1;entryDx=0;entryDy=0;" parent="1" source="L9WXrRlKNHFQn-w-btfH-35" target="L9WXrRlKNHFQn-w-btfH-29" edge="1">
          <mxGeometry width="50" height="50" relative="1" as="geometry">
            <mxPoint x="-580" y="620" as="sourcePoint" />
            <mxPoint x="-530" y="570" as="targetPoint" />
          </mxGeometry>
        </mxCell>
        <mxCell id="L9WXrRlKNHFQn-w-btfH-136" value="" style="endArrow=none;html=1;rounded=0;exitX=0.5;exitY=1;exitDx=0;exitDy=0;entryX=0.5;entryY=0;entryDx=0;entryDy=0;" parent="1" source="L9WXrRlKNHFQn-w-btfH-35" target="L9WXrRlKNHFQn-w-btfH-127" edge="1">
          <mxGeometry width="50" height="50" relative="1" as="geometry">
            <mxPoint x="-710" y="640" as="sourcePoint" />
            <mxPoint x="-710" y="620" as="targetPoint" />
          </mxGeometry>
        </mxCell>
        <mxCell id="L9WXrRlKNHFQn-w-btfH-137" value="" style="endArrow=none;html=1;rounded=0;exitX=0.5;exitY=0;exitDx=0;exitDy=0;entryX=0.5;entryY=1;entryDx=0;entryDy=0;" parent="1" source="L9WXrRlKNHFQn-w-btfH-128" target="L9WXrRlKNHFQn-w-btfH-127" edge="1">
          <mxGeometry width="50" height="50" relative="1" as="geometry">
            <mxPoint x="-600" y="760" as="sourcePoint" />
            <mxPoint x="-550" y="710" as="targetPoint" />
          </mxGeometry>
        </mxCell>
        <mxCell id="L9WXrRlKNHFQn-w-btfH-138" value="" style="endArrow=none;html=1;rounded=0;exitX=0.5;exitY=0;exitDx=0;exitDy=0;entryX=0.5;entryY=1;entryDx=0;entryDy=0;" parent="1" source="L9WXrRlKNHFQn-w-btfH-130" target="L9WXrRlKNHFQn-w-btfH-128" edge="1">
          <mxGeometry width="50" height="50" relative="1" as="geometry">
            <mxPoint x="-600" y="810" as="sourcePoint" />
            <mxPoint x="-550" y="760" as="targetPoint" />
          </mxGeometry>
        </mxCell>
        <mxCell id="L9WXrRlKNHFQn-w-btfH-139" value="" style="endArrow=none;html=1;rounded=0;exitX=0.5;exitY=0;exitDx=0;exitDy=0;entryX=0.5;entryY=1;entryDx=0;entryDy=0;" parent="1" source="L9WXrRlKNHFQn-w-btfH-131" target="L9WXrRlKNHFQn-w-btfH-130" edge="1">
          <mxGeometry width="50" height="50" relative="1" as="geometry">
            <mxPoint x="-580" y="870" as="sourcePoint" />
            <mxPoint x="-530" y="820" as="targetPoint" />
          </mxGeometry>
        </mxCell>
        <mxCell id="L9WXrRlKNHFQn-w-btfH-140" value="Artist" style="rounded=0;whiteSpace=wrap;html=1;fontSize=16;" parent="1" vertex="1">
          <mxGeometry x="-550" y="130" width="120" height="60" as="geometry" />
        </mxCell>
        <mxCell id="L9WXrRlKNHFQn-w-btfH-141" value="Login" style="rhombus;whiteSpace=wrap;html=1;fontSize=16;" parent="1" vertex="1">
          <mxGeometry x="-540" y="240" width="80" height="80" as="geometry" />
        </mxCell>
        <mxCell id="L9WXrRlKNHFQn-w-btfH-142" value="" style="endArrow=classic;html=1;rounded=0;exitX=0.42;exitY=1.004;exitDx=0;exitDy=0;entryX=0.5;entryY=0;entryDx=0;entryDy=0;exitPerimeter=0;fontSize=16;" parent="1" source="L9WXrRlKNHFQn-w-btfH-140" target="L9WXrRlKNHFQn-w-btfH-141" edge="1">
          <mxGeometry width="50" height="50" relative="1" as="geometry">
            <mxPoint x="-500" y="240" as="sourcePoint" />
            <mxPoint x="-530" y="220" as="targetPoint" />
          </mxGeometry>
        </mxCell>
        <mxCell id="L9WXrRlKNHFQn-w-btfH-143" value="" style="endArrow=classic;html=1;rounded=0;entryX=0;entryY=0.5;entryDx=0;entryDy=0;exitX=0;exitY=0.5;exitDx=0;exitDy=0;fontSize=16;" parent="1" source="L9WXrRlKNHFQn-w-btfH-141" target="L9WXrRlKNHFQn-w-btfH-140" edge="1">
          <mxGeometry width="50" height="50" relative="1" as="geometry">
            <mxPoint x="-550" y="270" as="sourcePoint" />
            <mxPoint x="-560" y="260" as="targetPoint" />
            <Array as="points">
              <mxPoint x="-580" y="280" />
              <mxPoint x="-580" y="160" />
            </Array>
          </mxGeometry>
        </mxCell>
        <mxCell id="L9WXrRlKNHFQn-w-btfH-160" value="Admin" style="rounded=0;whiteSpace=wrap;html=1;fontSize=16;" parent="1" vertex="1">
          <mxGeometry x="-330" y="130" width="120" height="60" as="geometry" />
        </mxCell>
        <mxCell id="L9WXrRlKNHFQn-w-btfH-161" value="Login" style="rhombus;whiteSpace=wrap;html=1;fontSize=16;" parent="1" vertex="1">
          <mxGeometry x="-320" y="240" width="80" height="80" as="geometry" />
        </mxCell>
        <mxCell id="L9WXrRlKNHFQn-w-btfH-162" value="" style="endArrow=classic;html=1;rounded=0;exitX=0.42;exitY=1.004;exitDx=0;exitDy=0;entryX=0.5;entryY=0;entryDx=0;entryDy=0;exitPerimeter=0;fontSize=16;" parent="1" source="L9WXrRlKNHFQn-w-btfH-160" target="L9WXrRlKNHFQn-w-btfH-161" edge="1">
          <mxGeometry width="50" height="50" relative="1" as="geometry">
            <mxPoint x="-280" y="240" as="sourcePoint" />
            <mxPoint x="-310" y="220" as="targetPoint" />
          </mxGeometry>
        </mxCell>
        <mxCell id="L9WXrRlKNHFQn-w-btfH-163" value="" style="endArrow=classic;html=1;rounded=0;entryX=0;entryY=0.5;entryDx=0;entryDy=0;exitX=0;exitY=0.5;exitDx=0;exitDy=0;fontSize=16;" parent="1" source="L9WXrRlKNHFQn-w-btfH-161" target="L9WXrRlKNHFQn-w-btfH-160" edge="1">
          <mxGeometry width="50" height="50" relative="1" as="geometry">
            <mxPoint x="-330" y="270" as="sourcePoint" />
            <mxPoint x="-340" y="260" as="targetPoint" />
            <Array as="points">
              <mxPoint x="-360" y="280" />
              <mxPoint x="-360" y="160" />
            </Array>
          </mxGeometry>
        </mxCell>
        <mxCell id="L9WXrRlKNHFQn-w-btfH-181" value="" style="endArrow=none;html=1;rounded=0;entryX=0.5;entryY=1;entryDx=0;entryDy=0;exitX=0.5;exitY=0;exitDx=0;exitDy=0;" parent="1" source="L9WXrRlKNHFQn-w-btfH-28" target="L9WXrRlKNHFQn-w-btfH-10" edge="1">
          <mxGeometry width="50" height="50" relative="1" as="geometry">
            <mxPoint x="-680" y="350" as="sourcePoint" />
            <mxPoint x="-630" y="300" as="targetPoint" />
          </mxGeometry>
        </mxCell>
        <mxCell id="L9WXrRlKNHFQn-w-btfH-184" value="Listen music" style="rounded=0;whiteSpace=wrap;html=1;" parent="1" vertex="1">
          <mxGeometry x="-790" y="400" width="120" height="40" as="geometry" />
        </mxCell>
        <mxCell id="L9WXrRlKNHFQn-w-btfH-185" value="" style="endArrow=none;html=1;rounded=0;entryX=0.5;entryY=1;entryDx=0;entryDy=0;exitX=0.5;exitY=0;exitDx=0;exitDy=0;" parent="1" source="L9WXrRlKNHFQn-w-btfH-184" target="L9WXrRlKNHFQn-w-btfH-28" edge="1">
          <mxGeometry width="50" height="50" relative="1" as="geometry">
            <mxPoint x="-620" y="450" as="sourcePoint" />
            <mxPoint x="-570" y="400" as="targetPoint" />
          </mxGeometry>
        </mxCell>
        <mxCell id="L9WXrRlKNHFQn-w-btfH-186" value="" style="endArrow=none;html=1;rounded=0;exitX=0.5;exitY=0;exitDx=0;exitDy=0;entryX=0.586;entryY=0.967;entryDx=0;entryDy=0;entryPerimeter=0;" parent="1" source="L9WXrRlKNHFQn-w-btfH-126" target="L9WXrRlKNHFQn-w-btfH-184" edge="1">
          <mxGeometry width="50" height="50" relative="1" as="geometry">
            <mxPoint x="-700" y="500" as="sourcePoint" />
            <mxPoint x="-650" y="450" as="targetPoint" />
          </mxGeometry>
        </mxCell>
        <mxCell id="L9WXrRlKNHFQn-w-btfH-187" value="Homepage" style="rounded=0;whiteSpace=wrap;html=1;fontSize=16;" parent="1" vertex="1">
          <mxGeometry x="-560" y="340" width="120" height="40" as="geometry" />
        </mxCell>
        <mxCell id="L9WXrRlKNHFQn-w-btfH-191" value="View User Profile" style="rounded=0;whiteSpace=wrap;html=1;fontSize=16;" parent="1" vertex="1">
          <mxGeometry x="-550" y="870" width="120" height="40" as="geometry" />
        </mxCell>
        <mxCell id="L9WXrRlKNHFQn-w-btfH-192" value="View Other User/Artist Profile" style="rounded=0;whiteSpace=wrap;html=1;fontSize=16;" parent="1" vertex="1">
          <mxGeometry x="-550" y="930" width="120" height="70" as="geometry" />
        </mxCell>
        <mxCell id="L9WXrRlKNHFQn-w-btfH-193" value="Create Playlists" style="rounded=0;whiteSpace=wrap;html=1;fontSize=16;" parent="1" vertex="1">
          <mxGeometry x="-550" y="1020" width="120" height="40" as="geometry" />
        </mxCell>
        <mxCell id="L9WXrRlKNHFQn-w-btfH-194" value="Log Out" style="rounded=0;whiteSpace=wrap;html=1;fontSize=16;" parent="1" vertex="1">
          <mxGeometry x="-550" y="1080" width="120" height="40" as="geometry" />
        </mxCell>
        <mxCell id="L9WXrRlKNHFQn-w-btfH-199" value="" style="endArrow=none;html=1;rounded=0;exitX=0.5;exitY=0;exitDx=0;exitDy=0;entryX=0.5;entryY=1;entryDx=0;entryDy=0;" parent="1" source="L9WXrRlKNHFQn-w-btfH-192" target="L9WXrRlKNHFQn-w-btfH-191" edge="1">
          <mxGeometry width="50" height="50" relative="1" as="geometry">
            <mxPoint x="-380" y="880" as="sourcePoint" />
            <mxPoint x="-330" y="830" as="targetPoint" />
          </mxGeometry>
        </mxCell>
        <mxCell id="L9WXrRlKNHFQn-w-btfH-200" value="" style="endArrow=none;html=1;rounded=0;exitX=0.5;exitY=0;exitDx=0;exitDy=0;entryX=0.5;entryY=1;entryDx=0;entryDy=0;" parent="1" source="L9WXrRlKNHFQn-w-btfH-193" target="L9WXrRlKNHFQn-w-btfH-192" edge="1">
          <mxGeometry width="50" height="50" relative="1" as="geometry">
            <mxPoint x="-380" y="930" as="sourcePoint" />
            <mxPoint x="-330" y="880" as="targetPoint" />
          </mxGeometry>
        </mxCell>
        <mxCell id="L9WXrRlKNHFQn-w-btfH-201" value="" style="endArrow=none;html=1;rounded=0;exitX=0.5;exitY=0;exitDx=0;exitDy=0;entryX=0.5;entryY=1;entryDx=0;entryDy=0;" parent="1" source="L9WXrRlKNHFQn-w-btfH-194" target="L9WXrRlKNHFQn-w-btfH-193" edge="1">
          <mxGeometry width="50" height="50" relative="1" as="geometry">
            <mxPoint x="-360" y="990" as="sourcePoint" />
            <mxPoint x="-310" y="940" as="targetPoint" />
          </mxGeometry>
        </mxCell>
        <mxCell id="L9WXrRlKNHFQn-w-btfH-202" value="" style="endArrow=none;html=1;rounded=0;entryX=0.5;entryY=1;entryDx=0;entryDy=0;exitX=0.5;exitY=0;exitDx=0;exitDy=0;" parent="1" source="L9WXrRlKNHFQn-w-btfH-187" edge="1">
          <mxGeometry width="50" height="50" relative="1" as="geometry">
            <mxPoint x="-450" y="350" as="sourcePoint" />
            <mxPoint x="-500" y="320" as="targetPoint" />
          </mxGeometry>
        </mxCell>
        <mxCell id="L9WXrRlKNHFQn-w-btfH-203" value="Post Music" style="rounded=0;whiteSpace=wrap;html=1;" parent="1" vertex="1">
          <mxGeometry x="-560" y="400" width="120" height="40" as="geometry" />
        </mxCell>
        <mxCell id="L9WXrRlKNHFQn-w-btfH-204" value="" style="endArrow=none;html=1;rounded=0;entryX=0.5;entryY=1;entryDx=0;entryDy=0;exitX=0.5;exitY=0;exitDx=0;exitDy=0;" parent="1" source="L9WXrRlKNHFQn-w-btfH-203" target="L9WXrRlKNHFQn-w-btfH-187" edge="1">
          <mxGeometry width="50" height="50" relative="1" as="geometry">
            <mxPoint x="-390" y="450" as="sourcePoint" />
            <mxPoint x="-340" y="400" as="targetPoint" />
          </mxGeometry>
        </mxCell>
        <mxCell id="L9WXrRlKNHFQn-w-btfH-206" value="Homepage" style="rounded=0;whiteSpace=wrap;html=1;fontSize=16;" parent="1" vertex="1">
          <mxGeometry x="-340" y="340" width="120" height="40" as="geometry" />
        </mxCell>
        <mxCell id="L9WXrRlKNHFQn-w-btfH-221" value="" style="endArrow=none;html=1;rounded=0;entryX=0.5;entryY=1;entryDx=0;entryDy=0;exitX=0.5;exitY=0;exitDx=0;exitDy=0;" parent="1" source="L9WXrRlKNHFQn-w-btfH-206" edge="1">
          <mxGeometry width="50" height="50" relative="1" as="geometry">
            <mxPoint x="-230" y="350" as="sourcePoint" />
            <mxPoint x="-280" y="320" as="targetPoint" />
          </mxGeometry>
        </mxCell>
        <mxCell id="L9WXrRlKNHFQn-w-btfH-225" value="View Music" style="rounded=0;whiteSpace=wrap;html=1;" parent="1" vertex="1">
          <mxGeometry x="-560" y="450" width="120" height="40" as="geometry" />
        </mxCell>
        <mxCell id="L9WXrRlKNHFQn-w-btfH-226" value="View Likes" style="rounded=0;whiteSpace=wrap;html=1;" parent="1" vertex="1">
          <mxGeometry x="-560" y="500" width="120" height="40" as="geometry" />
        </mxCell>
        <mxCell id="L9WXrRlKNHFQn-w-btfH-227" value="View Comments" style="rounded=0;whiteSpace=wrap;html=1;" parent="1" vertex="1">
          <mxGeometry x="-560" y="550" width="120" height="40" as="geometry" />
        </mxCell>
        <mxCell id="L9WXrRlKNHFQn-w-btfH-228" value="Remove unwanted commetns" style="rounded=0;whiteSpace=wrap;html=1;" parent="1" vertex="1">
          <mxGeometry x="-560" y="600" width="120" height="40" as="geometry" />
        </mxCell>
        <mxCell id="L9WXrRlKNHFQn-w-btfH-229" value="Like Music" style="rounded=0;whiteSpace=wrap;html=1;fontSize=16;" parent="1" vertex="1">
          <mxGeometry x="-550" y="820" width="120" height="40" as="geometry" />
        </mxCell>
        <mxCell id="L9WXrRlKNHFQn-w-btfH-230" value="&lt;font style=&quot;font-size: 14px;&quot;&gt;Enjoys music?&lt;/font&gt;" style="rhombus;whiteSpace=wrap;html=1;fontSize=16;" parent="1" vertex="1">
          <mxGeometry x="-530" y="720" width="80" height="80" as="geometry" />
        </mxCell>
        <mxCell id="L9WXrRlKNHFQn-w-btfH-231" value="" style="endArrow=none;html=1;rounded=0;exitX=1;exitY=0.5;exitDx=0;exitDy=0;entryX=1;entryY=0.5;entryDx=0;entryDy=0;" parent="1" source="L9WXrRlKNHFQn-w-btfH-230" target="L9WXrRlKNHFQn-w-btfH-232" edge="1">
          <mxGeometry width="50" height="50" relative="1" as="geometry">
            <mxPoint x="-410" y="700" as="sourcePoint" />
            <mxPoint x="-360" y="650" as="targetPoint" />
            <Array as="points">
              <mxPoint x="-400" y="760" />
              <mxPoint x="-400" y="690" />
              <mxPoint x="-400" y="670" />
            </Array>
          </mxGeometry>
        </mxCell>
        <mxCell id="L9WXrRlKNHFQn-w-btfH-232" value="Listen music" style="rounded=0;whiteSpace=wrap;html=1;" parent="1" vertex="1">
          <mxGeometry x="-560" y="650" width="120" height="40" as="geometry" />
        </mxCell>
        <mxCell id="L9WXrRlKNHFQn-w-btfH-233" value="" style="endArrow=none;html=1;rounded=0;exitX=0.5;exitY=0;exitDx=0;exitDy=0;entryX=0.586;entryY=0.967;entryDx=0;entryDy=0;entryPerimeter=0;" parent="1" source="L9WXrRlKNHFQn-w-btfH-230" target="L9WXrRlKNHFQn-w-btfH-232" edge="1">
          <mxGeometry width="50" height="50" relative="1" as="geometry">
            <mxPoint x="-470" y="750" as="sourcePoint" />
            <mxPoint x="-420" y="700" as="targetPoint" />
          </mxGeometry>
        </mxCell>
        <mxCell id="L9WXrRlKNHFQn-w-btfH-234" value="View User Profile" style="rounded=0;whiteSpace=wrap;html=1;fontSize=16;" parent="1" vertex="1">
          <mxGeometry x="-330" y="770" width="120" height="40" as="geometry" />
        </mxCell>
        <mxCell id="L9WXrRlKNHFQn-w-btfH-235" value="View Other User/Artist Profile" style="rounded=0;whiteSpace=wrap;html=1;fontSize=16;" parent="1" vertex="1">
          <mxGeometry x="-330" y="830" width="120" height="70" as="geometry" />
        </mxCell>
        <mxCell id="L9WXrRlKNHFQn-w-btfH-236" value="Create Playlists" style="rounded=0;whiteSpace=wrap;html=1;fontSize=16;" parent="1" vertex="1">
          <mxGeometry x="-330" y="920" width="120" height="40" as="geometry" />
        </mxCell>
        <mxCell id="L9WXrRlKNHFQn-w-btfH-237" value="Log Out" style="rounded=0;whiteSpace=wrap;html=1;fontSize=16;" parent="1" vertex="1">
          <mxGeometry x="-330" y="980" width="120" height="40" as="geometry" />
        </mxCell>
        <mxCell id="L9WXrRlKNHFQn-w-btfH-238" value="" style="endArrow=none;html=1;rounded=0;exitX=0.5;exitY=0;exitDx=0;exitDy=0;entryX=0.5;entryY=1;entryDx=0;entryDy=0;" parent="1" source="L9WXrRlKNHFQn-w-btfH-235" target="L9WXrRlKNHFQn-w-btfH-234" edge="1">
          <mxGeometry width="50" height="50" relative="1" as="geometry">
            <mxPoint x="-160" y="780" as="sourcePoint" />
            <mxPoint x="-110" y="730" as="targetPoint" />
          </mxGeometry>
        </mxCell>
        <mxCell id="L9WXrRlKNHFQn-w-btfH-239" value="" style="endArrow=none;html=1;rounded=0;exitX=0.5;exitY=0;exitDx=0;exitDy=0;entryX=0.5;entryY=1;entryDx=0;entryDy=0;" parent="1" source="L9WXrRlKNHFQn-w-btfH-236" target="L9WXrRlKNHFQn-w-btfH-235" edge="1">
          <mxGeometry width="50" height="50" relative="1" as="geometry">
            <mxPoint x="-160" y="830" as="sourcePoint" />
            <mxPoint x="-110" y="780" as="targetPoint" />
          </mxGeometry>
        </mxCell>
        <mxCell id="L9WXrRlKNHFQn-w-btfH-240" value="" style="endArrow=none;html=1;rounded=0;exitX=0.5;exitY=0;exitDx=0;exitDy=0;entryX=0.5;entryY=1;entryDx=0;entryDy=0;" parent="1" source="L9WXrRlKNHFQn-w-btfH-237" target="L9WXrRlKNHFQn-w-btfH-236" edge="1">
          <mxGeometry width="50" height="50" relative="1" as="geometry">
            <mxPoint x="-140" y="890" as="sourcePoint" />
            <mxPoint x="-90" y="840" as="targetPoint" />
          </mxGeometry>
        </mxCell>
        <mxCell id="L9WXrRlKNHFQn-w-btfH-241" value="View Likes" style="rounded=0;whiteSpace=wrap;html=1;" parent="1" vertex="1">
          <mxGeometry x="-340" y="400" width="120" height="40" as="geometry" />
        </mxCell>
        <mxCell id="L9WXrRlKNHFQn-w-btfH-242" value="View Comments" style="rounded=0;whiteSpace=wrap;html=1;" parent="1" vertex="1">
          <mxGeometry x="-340" y="450" width="120" height="40" as="geometry" />
        </mxCell>
        <mxCell id="L9WXrRlKNHFQn-w-btfH-243" value="Remove unwanted commetns" style="rounded=0;whiteSpace=wrap;html=1;" parent="1" vertex="1">
          <mxGeometry x="-340" y="500" width="120" height="40" as="geometry" />
        </mxCell>
        <mxCell id="L9WXrRlKNHFQn-w-btfH-244" value="Like Music" style="rounded=0;whiteSpace=wrap;html=1;fontSize=16;" parent="1" vertex="1">
          <mxGeometry x="-330" y="720" width="120" height="40" as="geometry" />
        </mxCell>
        <mxCell id="L9WXrRlKNHFQn-w-btfH-245" value="&lt;font style=&quot;font-size: 14px;&quot;&gt;Enjoys music?&lt;/font&gt;" style="rhombus;whiteSpace=wrap;html=1;fontSize=16;" parent="1" vertex="1">
          <mxGeometry x="-310" y="620" width="80" height="80" as="geometry" />
        </mxCell>
        <mxCell id="L9WXrRlKNHFQn-w-btfH-246" value="" style="endArrow=none;html=1;rounded=0;exitX=1;exitY=0.5;exitDx=0;exitDy=0;entryX=1;entryY=0.5;entryDx=0;entryDy=0;" parent="1" source="L9WXrRlKNHFQn-w-btfH-245" target="L9WXrRlKNHFQn-w-btfH-247" edge="1">
          <mxGeometry width="50" height="50" relative="1" as="geometry">
            <mxPoint x="-190" y="600" as="sourcePoint" />
            <mxPoint x="-140" y="550" as="targetPoint" />
            <Array as="points">
              <mxPoint x="-180" y="660" />
              <mxPoint x="-180" y="590" />
              <mxPoint x="-180" y="570" />
            </Array>
          </mxGeometry>
        </mxCell>
        <mxCell id="L9WXrRlKNHFQn-w-btfH-247" value="Listen music" style="rounded=0;whiteSpace=wrap;html=1;" parent="1" vertex="1">
          <mxGeometry x="-340" y="550" width="120" height="40" as="geometry" />
        </mxCell>
        <mxCell id="L9WXrRlKNHFQn-w-btfH-248" value="" style="endArrow=none;html=1;rounded=0;exitX=0.5;exitY=0;exitDx=0;exitDy=0;entryX=0.586;entryY=0.967;entryDx=0;entryDy=0;entryPerimeter=0;" parent="1" source="L9WXrRlKNHFQn-w-btfH-245" target="L9WXrRlKNHFQn-w-btfH-247" edge="1">
          <mxGeometry width="50" height="50" relative="1" as="geometry">
            <mxPoint x="-250" y="650" as="sourcePoint" />
            <mxPoint x="-200" y="600" as="targetPoint" />
          </mxGeometry>
        </mxCell>
        <mxCell id="L9WXrRlKNHFQn-w-btfH-249" value="" style="endArrow=none;html=1;rounded=0;exitX=0.5;exitY=0;exitDx=0;exitDy=0;entryX=0.5;entryY=1;entryDx=0;entryDy=0;" parent="1" source="L9WXrRlKNHFQn-w-btfH-229" target="L9WXrRlKNHFQn-w-btfH-230" edge="1">
          <mxGeometry width="50" height="50" relative="1" as="geometry">
            <mxPoint x="-150" y="700" as="sourcePoint" />
            <mxPoint x="-100" y="650" as="targetPoint" />
          </mxGeometry>
        </mxCell>
        <mxCell id="L9WXrRlKNHFQn-w-btfH-250" value="" style="endArrow=none;html=1;rounded=0;exitX=0.5;exitY=0;exitDx=0;exitDy=0;entryX=0.5;entryY=1;entryDx=0;entryDy=0;" parent="1" source="L9WXrRlKNHFQn-w-btfH-244" target="L9WXrRlKNHFQn-w-btfH-245" edge="1">
          <mxGeometry width="50" height="50" relative="1" as="geometry">
            <mxPoint x="-480" y="830" as="sourcePoint" />
            <mxPoint x="-480" y="810" as="targetPoint" />
          </mxGeometry>
        </mxCell>
        <mxCell id="i42l4WrnaCCEQySJiqY1-1" value="" style="endArrow=none;html=1;rounded=0;entryX=0.5;entryY=1;entryDx=0;entryDy=0;exitX=0.5;exitY=0;exitDx=0;exitDy=0;" edge="1" parent="1" source="L9WXrRlKNHFQn-w-btfH-226" target="L9WXrRlKNHFQn-w-btfH-225">
          <mxGeometry width="50" height="50" relative="1" as="geometry">
            <mxPoint x="-530" y="560" as="sourcePoint" />
            <mxPoint x="-480" y="510" as="targetPoint" />
          </mxGeometry>
        </mxCell>
        <mxCell id="i42l4WrnaCCEQySJiqY1-3" value="" style="endArrow=none;html=1;rounded=0;entryX=0.5;entryY=1;entryDx=0;entryDy=0;exitX=0.5;exitY=0;exitDx=0;exitDy=0;" edge="1" parent="1" source="L9WXrRlKNHFQn-w-btfH-227" target="L9WXrRlKNHFQn-w-btfH-226">
          <mxGeometry width="50" height="50" relative="1" as="geometry">
            <mxPoint x="-400" y="590" as="sourcePoint" />
            <mxPoint x="-350" y="540" as="targetPoint" />
          </mxGeometry>
        </mxCell>
        <mxCell id="i42l4WrnaCCEQySJiqY1-4" value="" style="endArrow=none;html=1;rounded=0;exitX=0.5;exitY=0;exitDx=0;exitDy=0;entryX=0.5;entryY=1;entryDx=0;entryDy=0;" edge="1" parent="1" source="L9WXrRlKNHFQn-w-btfH-228" target="L9WXrRlKNHFQn-w-btfH-227">
          <mxGeometry width="50" height="50" relative="1" as="geometry">
            <mxPoint x="-440" y="610" as="sourcePoint" />
            <mxPoint x="-290" y="610" as="targetPoint" />
          </mxGeometry>
        </mxCell>
        <mxCell id="i42l4WrnaCCEQySJiqY1-5" value="" style="endArrow=none;html=1;rounded=0;entryX=0.5;entryY=1;entryDx=0;entryDy=0;exitX=0.5;exitY=0;exitDx=0;exitDy=0;" edge="1" parent="1" source="L9WXrRlKNHFQn-w-btfH-232" target="L9WXrRlKNHFQn-w-btfH-228">
          <mxGeometry width="50" height="50" relative="1" as="geometry">
            <mxPoint x="-410" y="690" as="sourcePoint" />
            <mxPoint x="-360" y="640" as="targetPoint" />
          </mxGeometry>
        </mxCell>
        <mxCell id="i42l4WrnaCCEQySJiqY1-6" value="" style="endArrow=none;html=1;rounded=0;exitX=0.5;exitY=0;exitDx=0;exitDy=0;entryX=0.5;entryY=1;entryDx=0;entryDy=0;" edge="1" parent="1" source="L9WXrRlKNHFQn-w-btfH-225" target="L9WXrRlKNHFQn-w-btfH-203">
          <mxGeometry width="50" height="50" relative="1" as="geometry">
            <mxPoint x="-430" y="470" as="sourcePoint" />
            <mxPoint x="-380" y="420" as="targetPoint" />
          </mxGeometry>
        </mxCell>
        <mxCell id="i42l4WrnaCCEQySJiqY1-8" value="" style="endArrow=none;html=1;rounded=0;entryX=0.5;entryY=1;entryDx=0;entryDy=0;exitX=0.5;exitY=0;exitDx=0;exitDy=0;" edge="1" parent="1" source="L9WXrRlKNHFQn-w-btfH-241" target="L9WXrRlKNHFQn-w-btfH-206">
          <mxGeometry width="50" height="50" relative="1" as="geometry">
            <mxPoint x="-430" y="440" as="sourcePoint" />
            <mxPoint x="-380" y="390" as="targetPoint" />
          </mxGeometry>
        </mxCell>
      </root>
    </mxGraphModel>
  </diagram>
</mxfile>
